<svg version="1.1" id="Layer_1" xmlns="http://www.w3.org/2000/svg" xmlns:xlink="http://www.w3.org/1999/xlink" x="0px" y="0px"
	 width="100%" viewBox="0 0 960 1099" enable-background="new 0 0 960 1099" xml:space="preserve">
<path fill="#FFFFFF" opacity="1.000000" stroke="none" 
	d="
M523.000000,1.000000 
	C668.976685,1.000000 814.953369,1.000000 960.965027,1.000000 
	C960.965027,367.251495 960.965027,733.502991 960.965027,1099.877197 
	C641.000000,1099.877197 321.000031,1099.877197 1.000000,1099.877197 
	C1.000000,1055.572388 1.000000,1011.245911 1.267413,966.687012 
	C7.295125,982.174683 18.013283,989.683716 34.691494,989.683777 
	C43.684837,989.683777 52.678272,989.662903 61.671440,989.701965 
	C63.429844,989.709595 65.187233,989.949036 67.423836,990.117798 
	C67.423836,1023.036194 67.423836,1055.416138 67.423836,1087.589844 
	C75.847710,1087.589844 83.740852,1087.589844 91.993393,1087.589844 
	C91.993393,1054.935181 91.993393,1022.689514 91.993393,990.042358 
	C94.123123,989.908264 95.905151,989.704163 97.687782,989.698853 
	C108.013382,989.667847 118.339142,989.697937 128.664810,989.680115 
	C141.861237,989.657288 155.262512,978.021301 157.301498,964.587830 
	C155.447113,964.587830 153.628540,964.587830 151.809967,964.587830 
	C104.678185,964.587830 57.546398,964.579956 10.414630,964.605469 
	C7.276350,964.607178 4.138207,964.862610 1.000000,965.000000 
	C1.000000,643.762878 1.000000,322.525696 1.000000,1.000000 
	C146.360077,1.000000 291.720337,1.000000 437.349976,1.393973 
	C430.033722,2.191715 422.441254,2.496502 414.864014,3.021114 
	C401.580200,3.940819 388.285858,4.786593 375.032623,6.048648 
	C360.052673,7.475135 345.095703,9.184840 330.161041,11.032762 
	C315.443176,12.853863 300.667694,14.465302 286.093140,17.129658 
	C262.960144,21.358572 239.781219,25.612272 216.972153,31.268660 
	C187.008423,38.699326 157.163803,46.787941 127.679359,55.921650 
	C100.397934,64.372902 73.651047,74.552574 46.691669,84.036194 
	C43.866455,85.030029 43.295345,86.757378 44.847652,89.730301 
	C47.535954,94.878838 49.464123,100.418869 52.031296,105.637192 
	C57.235668,116.216171 62.653992,126.689896 68.007088,137.252350 
	C79.414551,132.635300 90.018410,127.876358 100.939514,124.014587 
	C128.945236,114.111572 156.856445,103.834656 185.253860,95.178375 
	C209.665756,87.736977 234.613220,81.969231 259.484955,76.149895 
	C275.257355,72.459572 291.274109,69.716515 307.275482,67.131821 
	C320.649200,64.971573 334.148895,63.565430 347.612549,61.994652 
	C362.730896,60.230827 377.853638,58.464981 393.008209,57.065536 
	C403.836273,56.065624 414.713898,55.533566 425.580627,55.039745 
	C436.664612,54.536045 447.763672,54.020821 458.853699,54.069439 
	C478.271240,54.154564 497.687744,54.624126 517.103027,55.015518 
	C529.696716,55.269398 542.320190,55.213921 554.871338,56.117596 
	C571.685852,57.328239 588.449890,59.269379 605.222961,61.017368 
	C617.098999,62.255016 629.027649,63.238903 640.801636,65.146042 
	C658.761719,68.055183 676.743958,71.069679 694.472351,75.111771 
	C723.034729,81.624039 751.688232,88.026009 779.761780,96.309608 
	C806.681396,104.252716 832.964600,114.384232 859.417969,123.859718 
	C869.143372,127.343353 878.564148,131.681198 888.105591,135.673080 
	C891.296326,137.008011 893.322815,137.096924 895.136292,133.113083 
	C899.232361,124.114922 904.286987,115.558289 908.583923,106.644753 
	C911.852539,99.864304 914.554749,92.810829 917.568359,85.739502 
	C908.966003,82.312019 901.168457,78.792297 893.102478,76.067368 
	C866.907715,67.218140 840.799927,58.035805 814.306030,50.169601 
	C789.048828,42.670597 763.399780,36.458729 737.822998,30.082262 
	C725.114502,26.913950 712.214417,24.473497 699.340759,22.020203 
	C687.538757,19.771128 675.663391,17.901064 663.806335,15.949042 
	C651.447144,13.914363 639.104187,11.733396 626.692383,10.080443 
	C616.297791,8.696140 605.813171,7.991032 595.370239,6.966289 
	C581.996582,5.653955 568.643066,4.074809 555.246033,3.080844 
	C545.184387,2.334340 535.067017,2.346841 524.977051,1.954215 
	C524.306702,1.928127 523.658508,1.331341 523.000000,1.000000 
M660.790833,1064.418823 
	C660.594177,1064.205811 660.355286,1064.063843 659.895935,1063.071045 
	C659.858704,1030.722290 659.821472,998.373596 659.893494,965.495789 
	C659.589111,965.381592 659.284729,965.267395 658.054138,965.018860 
	C650.633484,965.018860 643.212769,965.018860 635.794983,965.018860 
	C635.794983,1006.302307 635.794983,1046.890015 635.794983,1087.698120 
	C636.925598,1087.809448 637.887634,1087.986572 638.849854,1087.986938 
	C674.981567,1088.001465 711.113220,1088.009888 747.244873,1087.961914 
	C748.678528,1087.960083 750.326538,1087.755127 751.510010,1087.040771 
	C759.873718,1081.992554 766.073914,1075.296753 767.575439,1064.922729 
	C765.389282,1064.922729 763.396912,1064.925171 761.404541,1064.922363 
	C727.939697,1064.874878 694.474854,1064.826782 660.790833,1064.418823 
M454.882965,1012.072021 
	C454.882965,1004.496399 454.882965,996.920837 454.882965,989.122620 
	C481.630188,989.122620 507.605743,988.940369 533.576965,989.198120 
	C546.889465,989.330200 556.137939,982.765320 563.508728,972.642456 
	C565.071167,970.496643 565.867126,967.792664 567.140076,965.082031 
	C521.271118,965.082031 476.206146,965.082031 431.175537,965.082031 
	C431.175537,989.616272 431.175537,1013.823669 431.175537,1038.440186 
	C468.321747,1038.440186 505.079651,1038.440186 542.011230,1038.440186 
	C542.011230,1047.110107 542.011230,1055.365479 542.011230,1064.121460 
	C540.163940,1064.121460 538.544739,1064.120361 536.925537,1064.121582 
	C512.600891,1064.140015 488.270782,1064.476685 463.953491,1064.062256 
	C448.496429,1063.798828 437.371735,1070.990845 428.097870,1082.297729 
	C426.811707,1083.865845 425.823853,1085.678711 424.524353,1087.640381 
	C472.276062,1087.640381 519.170715,1087.640381 566.020813,1087.640381 
	C566.020813,1063.001465 566.020813,1038.722656 566.020813,1013.922485 
	C564.032410,1013.922485 562.249023,1013.924500 560.465698,1013.922119 
	C525.647095,1013.875061 490.828522,1013.827576 455.786774,1013.418579 
	C455.588104,1013.203674 455.346466,1013.062073 454.882965,1012.072021 
M500.029755,170.452133 
	C493.540314,178.236603 487.050873,186.021072 480.388611,194.012817 
	C471.587158,183.417877 462.755554,172.907242 454.059204,162.285889 
	C444.444244,150.542542 434.980011,138.675903 425.400299,126.903549 
	C416.536621,116.011162 407.637787,105.146973 398.692902,94.321220 
	C394.487122,89.231041 391.047821,82.709473 382.528717,84.981689 
	C380.809296,85.440300 379.041229,85.813347 377.272614,85.974899 
	C365.830933,87.020050 354.356842,87.764038 342.943298,89.050011 
	C327.036926,90.842171 311.058350,92.374443 295.320709,95.191505 
	C272.679291,99.244385 250.093475,103.798241 227.732803,109.173569 
	C207.140167,114.123863 186.712173,119.922951 166.517151,126.313583 
	C148.986511,131.861084 131.781525,138.497238 114.628075,145.155807 
	C103.541351,149.459412 92.806808,154.670303 81.352654,159.722412 
	C111.348640,202.608124 153.200989,228.672546 199.788361,249.054626 
	C200.242142,247.198181 200.740494,245.665741 200.980392,244.093887 
	C202.305481,235.410675 204.576218,227.085678 209.054291,219.397064 
	C215.923737,207.602585 226.848099,200.723541 238.970261,196.228973 
	C256.593079,189.694962 275.121246,186.827789 293.923248,185.994583 
	C300.851501,185.687576 307.774353,185.092957 314.703949,185.016373 
	C328.743011,184.861176 342.784943,184.970047 357.174622,184.970047 
	C398.001709,412.821533 438.919220,641.177612 479.836700,869.533630 
	C480.257355,869.507446 480.678009,869.481201 481.098633,869.455017 
	C483.066132,858.448364 484.998566,847.435303 487.010468,836.436768 
	C489.287140,823.990662 491.697357,811.568848 493.932404,799.115417 
	C495.712646,789.196106 497.289551,779.240356 499.006256,769.309448 
	C501.163330,756.831238 503.343292,744.356934 505.564056,731.889954 
	C508.011902,718.147888 510.563568,704.424255 512.984558,690.677551 
	C515.463623,676.601624 517.755127,662.492371 520.284363,648.425659 
	C522.753479,634.693787 525.561646,621.022217 527.963501,607.279114 
	C531.125488,589.186523 533.934204,571.032227 537.084778,552.937500 
	C539.924805,536.626099 543.000061,520.355347 546.010742,504.073944 
	C548.282104,491.791138 550.668030,479.529327 552.904175,467.240234 
	C554.679138,457.485413 556.304504,447.703339 557.996399,437.933380 
	C560.463318,423.688110 562.905518,409.438477 565.405273,395.198975 
	C567.230957,384.799286 569.156250,374.417114 570.993774,364.019501 
	C573.169495,351.708710 575.251831,339.381256 577.461182,327.076599 
	C579.583069,315.259399 581.882446,303.473938 583.981201,291.652740 
	C586.197754,279.167999 588.232117,266.651001 590.414917,254.160126 
	C592.566345,241.848419 594.787292,229.548752 597.008423,217.249359 
	C598.995239,206.248337 601.023987,195.254868 602.901855,184.982086 
	C617.156311,184.982086 630.899414,184.728165 644.628113,185.064346 
	C655.150452,185.322037 665.660583,186.241364 676.165283,187.015045 
	C692.434631,188.213303 708.409485,190.941864 723.640198,197.038361 
	C736.531067,202.198288 747.629272,209.800125 753.264404,222.953781 
	C756.777161,231.153442 758.832947,239.977325 761.621765,248.770752 
	C807.684021,229.058121 849.367737,202.324707 879.508118,159.695175 
	C876.261230,158.290375 873.621582,157.100128 870.945496,155.998352 
	C853.916138,148.987122 837.131165,141.280304 819.787537,135.157150 
	C790.384460,124.776382 760.666504,115.267502 730.138916,108.587669 
	C717.162598,105.748283 704.264526,102.493263 691.208923,100.089264 
	C674.577820,97.026886 657.857178,94.394089 641.111206,92.029022 
	C626.878723,90.018936 612.558899,88.621216 598.270935,87.012695 
	C591.766602,86.280449 585.251831,85.626068 578.730835,85.063019 
	C574.080566,84.661491 569.690674,84.529091 566.297058,89.056534 
	C561.603882,95.317757 556.263550,101.089668 551.315857,107.165138 
	C539.884216,121.202332 528.517395,135.292343 517.133667,149.368515 
	C511.593689,156.218857 506.074707,163.086166 500.029755,170.452133 
M935.776733,1087.999634 
	C942.562744,1087.999634 949.348755,1087.999634 956.298584,1087.999634 
	C956.298584,1063.130615 956.298584,1038.736572 956.298584,1014.348022 
	C910.778992,1014.348022 865.576660,1014.348022 820.372925,1014.348022 
	C820.372925,1038.989990 820.372925,1063.247681 820.372925,1087.596313 
	C828.455811,1087.596313 836.298584,1087.596313 844.548584,1087.596313 
	C844.548584,1071.264771 844.548584,1055.334106 844.548584,1039.476807 
	C873.999146,1039.476807 903.031128,1039.476807 932.308655,1039.476807 
	C932.308655,1054.525879 932.285522,1069.177002 932.339111,1083.827637 
	C932.345581,1085.590454 931.391846,1088.186768 935.776733,1087.999634 
M350.894470,981.409119 
	C355.366333,976.734253 359.124939,971.656616 360.556091,964.802856 
	C312.814056,964.802856 265.486450,964.802856 218.098419,964.802856 
	C219.867737,976.179871 233.526886,989.669983 246.071243,989.517761 
	C273.879883,989.180420 301.697052,989.246338 329.507141,989.516357 
	C337.642273,989.595337 344.418579,987.180054 350.894470,981.409119 
M232.308670,1034.277954 
	C236.437744,1035.792236 240.550751,1038.566040 244.698456,1038.619019 
	C274.335846,1038.997192 303.980408,1038.850830 333.622528,1038.805298 
	C344.496277,1038.788452 359.005707,1026.040283 360.186340,1014.084106 
	C312.633118,1014.084106 265.105164,1014.084106 217.431183,1014.084106 
	C220.332153,1022.130920 224.455719,1029.128784 232.308670,1034.277954 
M821.746521,964.587524 
	C819.990967,964.587524 818.235413,964.587524 816.036316,964.587524 
	C819.331360,973.367249 823.963196,980.138611 831.173706,985.135315 
	C835.236938,987.951050 839.535461,989.569519 844.467224,989.569641 
	C873.784668,989.570129 903.102661,989.693665 932.419189,989.531738 
	C944.360596,989.465820 957.936462,976.683350 959.057434,964.587158 
	C913.570374,964.587158 868.128906,964.587158 821.746521,964.587524 
M239.117142,1087.995117 
	C271.076416,1087.996948 303.035675,1087.999146 334.994934,1088.000610 
	C346.577515,1088.001099 358.758270,1076.794312 360.128754,1064.693481 
	C312.809662,1064.693481 265.514740,1064.693481 217.531876,1064.693481 
	C221.337967,1075.815063 227.663666,1083.748291 239.117142,1087.995117 
z"/>
<path fill="#E82127" opacity="1.000000" stroke="none" 
	d="
M522.531372,1.000000 
	C523.658508,1.331341 524.306702,1.928127 524.977051,1.954215 
	C535.067017,2.346841 545.184387,2.334340 555.246033,3.080844 
	C568.643066,4.074809 581.996582,5.653955 595.370239,6.966289 
	C605.813171,7.991032 616.297791,8.696140 626.692383,10.080443 
	C639.104187,11.733396 651.447144,13.914363 663.806335,15.949042 
	C675.663391,17.901064 687.538757,19.771128 699.340759,22.020203 
	C712.214417,24.473497 725.114502,26.913950 737.822998,30.082262 
	C763.399780,36.458729 789.048828,42.670597 814.306030,50.169601 
	C840.799927,58.035805 866.907715,67.218140 893.102478,76.067368 
	C901.168457,78.792297 908.966003,82.312019 917.568359,85.739502 
	C914.554749,92.810829 911.852539,99.864304 908.583923,106.644753 
	C904.286987,115.558289 899.232361,124.114922 895.136292,133.113083 
	C893.322815,137.096924 891.296326,137.008011 888.105591,135.673080 
	C878.564148,131.681198 869.143372,127.343353 859.417969,123.859718 
	C832.964600,114.384232 806.681396,104.252716 779.761780,96.309608 
	C751.688232,88.026009 723.034729,81.624039 694.472351,75.111771 
	C676.743958,71.069679 658.761719,68.055183 640.801636,65.146042 
	C629.027649,63.238903 617.098999,62.255016 605.222961,61.017368 
	C588.449890,59.269379 571.685852,57.328239 554.871338,56.117596 
	C542.320190,55.213921 529.696716,55.269398 517.103027,55.015518 
	C497.687744,54.624126 478.271240,54.154564 458.853699,54.069439 
	C447.763672,54.020821 436.664612,54.536045 425.580627,55.039745 
	C414.713898,55.533566 403.836273,56.065624 393.008209,57.065536 
	C377.853638,58.464981 362.730896,60.230827 347.612549,61.994652 
	C334.148895,63.565430 320.649200,64.971573 307.275482,67.131821 
	C291.274109,69.716515 275.257355,72.459572 259.484955,76.149895 
	C234.613220,81.969231 209.665756,87.736977 185.253860,95.178375 
	C156.856445,103.834656 128.945236,114.111572 100.939514,124.014587 
	C90.018410,127.876358 79.414551,132.635300 68.007088,137.252350 
	C62.653992,126.689896 57.235668,116.216171 52.031296,105.637192 
	C49.464123,100.418869 47.535954,94.878838 44.847652,89.730301 
	C43.295345,86.757378 43.866455,85.030029 46.691669,84.036194 
	C73.651047,74.552574 100.397934,64.372902 127.679359,55.921650 
	C157.163803,46.787941 187.008423,38.699326 216.972153,31.268660 
	C239.781219,25.612272 262.960144,21.358572 286.093140,17.129658 
	C300.667694,14.465302 315.443176,12.853863 330.161041,11.032762 
	C345.095703,9.184840 360.052673,7.475135 375.032623,6.048648 
	C388.285858,4.786593 401.580200,3.940819 414.864014,3.021114 
	C422.441254,2.496502 430.033722,2.191715 437.809692,1.393973 
	C466.020905,1.000000 494.041779,1.000000 522.531372,1.000000 
z"/>
<path fill="#E82127" opacity="1.000000" stroke="none" 
	d="
M1.000000,965.250000 
	C4.138207,964.862610 7.276350,964.607178 10.414630,964.605469 
	C57.546398,964.579956 104.678185,964.587830 151.809967,964.587830 
	C153.628540,964.587830 155.447113,964.587830 157.301498,964.587830 
	C155.262512,978.021301 141.861237,989.657288 128.664810,989.680115 
	C118.339142,989.697937 108.013382,989.667847 97.687782,989.698853 
	C95.905151,989.704163 94.123123,989.908264 91.993393,990.042358 
	C91.993393,1022.689514 91.993393,1054.935181 91.993393,1087.589844 
	C83.740852,1087.589844 75.847710,1087.589844 67.423836,1087.589844 
	C67.423836,1055.416138 67.423836,1023.036194 67.423836,990.117798 
	C65.187233,989.949036 63.429844,989.709595 61.671440,989.701965 
	C52.678272,989.662903 43.684837,989.683777 34.691494,989.683777 
	C18.013283,989.683716 7.295125,982.174683 1.267413,966.227295 
	C1.000000,966.000000 1.000000,965.500000 1.000000,965.250000 
z"/>
<path fill="#E82127" opacity="1.000000" stroke="none" 
	d="
M500.287964,170.198959 
	C506.074707,163.086166 511.593689,156.218857 517.133667,149.368515 
	C528.517395,135.292343 539.884216,121.202332 551.315857,107.165138 
	C556.263550,101.089668 561.603882,95.317757 566.297058,89.056534 
	C569.690674,84.529091 574.080566,84.661491 578.730835,85.063019 
	C585.251831,85.626068 591.766602,86.280449 598.270935,87.012695 
	C612.558899,88.621216 626.878723,90.018936 641.111206,92.029022 
	C657.857178,94.394089 674.577820,97.026886 691.208923,100.089264 
	C704.264526,102.493263 717.162598,105.748283 730.138916,108.587669 
	C760.666504,115.267502 790.384460,124.776382 819.787537,135.157150 
	C837.131165,141.280304 853.916138,148.987122 870.945496,155.998352 
	C873.621582,157.100128 876.261230,158.290375 879.508118,159.695175 
	C849.367737,202.324707 807.684021,229.058121 761.621765,248.770752 
	C758.832947,239.977325 756.777161,231.153442 753.264404,222.953781 
	C747.629272,209.800125 736.531067,202.198288 723.640198,197.038361 
	C708.409485,190.941864 692.434631,188.213303 676.165283,187.015045 
	C665.660583,186.241364 655.150452,185.322037 644.628113,185.064346 
	C630.899414,184.728165 617.156311,184.982086 602.901855,184.982086 
	C601.023987,195.254868 598.995239,206.248337 597.008423,217.249359 
	C594.787292,229.548752 592.566345,241.848419 590.414917,254.160126 
	C588.232117,266.651001 586.197754,279.167999 583.981201,291.652740 
	C581.882446,303.473938 579.583069,315.259399 577.461182,327.076599 
	C575.251831,339.381256 573.169495,351.708710 570.993774,364.019501 
	C569.156250,374.417114 567.230957,384.799286 565.405273,395.198975 
	C562.905518,409.438477 560.463318,423.688110 557.996399,437.933380 
	C556.304504,447.703339 554.679138,457.485413 552.904175,467.240234 
	C550.668030,479.529327 548.282104,491.791138 546.010742,504.073944 
	C543.000061,520.355347 539.924805,536.626099 537.084778,552.937500 
	C533.934204,571.032227 531.125488,589.186523 527.963501,607.279114 
	C525.561646,621.022217 522.753479,634.693787 520.284363,648.425659 
	C517.755127,662.492371 515.463623,676.601624 512.984558,690.677551 
	C510.563568,704.424255 508.011902,718.147888 505.564056,731.889954 
	C503.343292,744.356934 501.163330,756.831238 499.006256,769.309448 
	C497.289551,779.240356 495.712646,789.196106 493.932404,799.115417 
	C491.697357,811.568848 489.287140,823.990662 487.010468,836.436768 
	C484.998566,847.435303 483.066132,858.448364 481.098633,869.455017 
	C480.678009,869.481201 480.257355,869.507446 479.836700,869.533630 
	C438.919220,641.177612 398.001709,412.821533 357.174622,184.970047 
	C342.784943,184.970047 328.743011,184.861176 314.703949,185.016373 
	C307.774353,185.092957 300.851501,185.687576 293.923248,185.994583 
	C275.121246,186.827789 256.593079,189.694962 238.970261,196.228973 
	C226.848099,200.723541 215.923737,207.602585 209.054291,219.397064 
	C204.576218,227.085678 202.305481,235.410675 200.980392,244.093887 
	C200.740494,245.665741 200.242142,247.198181 199.788361,249.054626 
	C153.200989,228.672546 111.348640,202.608124 81.352654,159.722412 
	C92.806808,154.670303 103.541351,149.459412 114.628075,145.155807 
	C131.781525,138.497238 148.986511,131.861084 166.517151,126.313583 
	C186.712173,119.922951 207.140167,114.123863 227.732803,109.173569 
	C250.093475,103.798241 272.679291,99.244385 295.320709,95.191505 
	C311.058350,92.374443 327.036926,90.842171 342.943298,89.050011 
	C354.356842,87.764038 365.830933,87.020050 377.272614,85.974899 
	C379.041229,85.813347 380.809296,85.440300 382.528717,84.981689 
	C391.047821,82.709473 394.487122,89.231041 398.692902,94.321220 
	C407.637787,105.146973 416.536621,116.011162 425.400299,126.903549 
	C434.980011,138.675903 444.444244,150.542542 454.059204,162.285889 
	C462.755554,172.907242 471.587158,183.417877 480.388611,194.012817 
	C487.050873,186.021072 493.540314,178.236603 500.287964,170.198959 
z"/>
<path fill="#E82127" opacity="1.000000" stroke="none" 
	d="
M456.009918,1013.780151 
	C490.828522,1013.827576 525.647095,1013.875061 560.465698,1013.922119 
	C562.249023,1013.924500 564.032410,1013.922485 566.020813,1013.922485 
	C566.020813,1038.722656 566.020813,1063.001465 566.020813,1087.640381 
	C519.170715,1087.640381 472.276062,1087.640381 424.524353,1087.640381 
	C425.823853,1085.678711 426.811707,1083.865845 428.097870,1082.297729 
	C437.371735,1070.990845 448.496429,1063.798828 463.953491,1064.062256 
	C488.270782,1064.476685 512.600891,1064.140015 536.925537,1064.121582 
	C538.544739,1064.120361 540.163940,1064.121460 542.011230,1064.121460 
	C542.011230,1055.365479 542.011230,1047.110107 542.011230,1038.440186 
	C505.079651,1038.440186 468.321747,1038.440186 431.175537,1038.440186 
	C431.175537,1013.823669 431.175537,989.616272 431.175537,965.082031 
	C476.206146,965.082031 521.271118,965.082031 567.140076,965.082031 
	C565.867126,967.792664 565.071167,970.496643 563.508728,972.642456 
	C556.137939,982.765320 546.889465,989.330200 533.576965,989.198120 
	C507.605743,988.940369 481.630188,989.122620 454.882965,989.122620 
	C454.882965,996.920837 454.882965,1004.496399 454.956268,1012.808594 
	C455.356354,1013.623474 455.683136,1013.701843 456.009918,1013.780151 
z"/>
<path fill="#E82127" opacity="1.000000" stroke="none" 
	d="
M935.307617,1087.998047 
	C931.391846,1088.186768 932.345581,1085.590454 932.339111,1083.827637 
	C932.285522,1069.177002 932.308655,1054.525879 932.308655,1039.476807 
	C903.031128,1039.476807 873.999146,1039.476807 844.548584,1039.476807 
	C844.548584,1055.334106 844.548584,1071.264771 844.548584,1087.596313 
	C836.298584,1087.596313 828.455811,1087.596313 820.372925,1087.596313 
	C820.372925,1063.247681 820.372925,1038.989990 820.372925,1014.348022 
	C865.576660,1014.348022 910.778992,1014.348022 956.298584,1014.348022 
	C956.298584,1038.736572 956.298584,1063.130615 956.298584,1087.999634 
	C949.348755,1087.999634 942.562744,1087.999634 935.307617,1087.998047 
z"/>
<path fill="#E82127" opacity="1.000000" stroke="none" 
	d="
M659.784241,966.024902 
	C659.821472,998.373596 659.858704,1030.722290 659.967651,1063.805908 
	C660.362976,1064.620239 660.686462,1064.699585 661.010010,1064.778809 
	C694.474854,1064.826782 727.939697,1064.874878 761.404541,1064.922363 
	C763.396912,1064.925171 765.389282,1064.922729 767.575439,1064.922729 
	C766.073914,1075.296753 759.873718,1081.992554 751.510010,1087.040771 
	C750.326538,1087.755127 748.678528,1087.960083 747.244873,1087.961914 
	C711.113220,1088.009888 674.981567,1088.001465 638.849854,1087.986938 
	C637.887634,1087.986572 636.925598,1087.809448 635.794983,1087.698120 
	C635.794983,1046.890015 635.794983,1006.302307 635.794983,965.018860 
	C643.212769,965.018860 650.633484,965.018860 658.608887,965.267944 
	C659.310547,965.759583 659.517395,965.928894 659.784241,966.024902 
z"/>
<path fill="#E82228" opacity="1.000000" stroke="none" 
	d="
M350.632324,981.650757 
	C344.418579,987.180054 337.642273,989.595337 329.507141,989.516357 
	C301.697052,989.246338 273.879883,989.180420 246.071243,989.517761 
	C233.526886,989.669983 219.867737,976.179871 218.098419,964.802856 
	C265.486450,964.802856 312.814056,964.802856 360.556091,964.802856 
	C359.124939,971.656616 355.366333,976.734253 350.632324,981.650757 
z"/>
<path fill="#E82127" opacity="1.000000" stroke="none" 
	d="
M231.993805,1034.096191 
	C224.455719,1029.128784 220.332153,1022.130920 217.431183,1014.084106 
	C265.105164,1014.084106 312.633118,1014.084106 360.186340,1014.084106 
	C359.005707,1026.040283 344.496277,1038.788452 333.622528,1038.805298 
	C303.980408,1038.850830 274.335846,1038.997192 244.698456,1038.619019 
	C240.550751,1038.566040 236.437744,1035.792236 231.993805,1034.096191 
z"/>
<path fill="#E82127" opacity="1.000000" stroke="none" 
	d="
M822.216980,964.587341 
	C868.128906,964.587158 913.570374,964.587158 959.057434,964.587158 
	C957.936462,976.683350 944.360596,989.465820 932.419189,989.531738 
	C903.102661,989.693665 873.784668,989.570129 844.467224,989.569641 
	C839.535461,989.569519 835.236938,987.951050 831.173706,985.135315 
	C823.963196,980.138611 819.331360,973.367249 816.036316,964.587524 
	C818.235413,964.587524 819.990967,964.587524 822.216980,964.587341 
z"/>
<path fill="#E82228" opacity="1.000000" stroke="none" 
	d="
M238.686691,1087.969482 
	C227.663666,1083.748291 221.337967,1075.815063 217.531876,1064.693481 
	C265.514740,1064.693481 312.809662,1064.693481 360.128754,1064.693481 
	C358.758270,1076.794312 346.577515,1088.001099 334.994934,1088.000610 
	C303.035675,1087.999146 271.076416,1087.996948 238.686691,1087.969482 
z"/>
<path fill="#EC4B4F" opacity="1.000000" stroke="none" 
	d="
M659.838867,965.760376 
	C659.517395,965.928894 659.310547,965.759583 659.071960,965.335144 
	C659.284729,965.267395 659.589111,965.381592 659.838867,965.760376 
z"/>
<path fill="#FCE1E2" opacity="1.000000" stroke="none" 
	d="
M455.898346,1013.599365 
	C455.683136,1013.701843 455.356354,1013.623474 455.045715,1013.269470 
	C455.346466,1013.062073 455.588104,1013.203674 455.898346,1013.599365 
z"/>
<path fill="#FCE1E2" opacity="1.000000" stroke="none" 
	d="
M660.900391,1064.598877 
	C660.686462,1064.699585 660.362976,1064.620239 660.056763,1064.266846 
	C660.355286,1064.063843 660.594177,1064.205811 660.900391,1064.598877 
z"/>
</svg>